<svg width="50" height="44" viewBox="0 0 50 44" fill="none" xmlns="http://www.w3.org/2000/svg">
<path d="M10.8178 27.9561V18.1165H12.6528V20.9354H14.7005C16.1365 20.9354 16.8545 21.6534 16.8545 23.0895V27.9561H15.0196V22.9565C15.0196 22.6728 14.8777 22.531 14.5941 22.531H12.6528V27.9561H10.8178ZM18.6064 25.802V23.0895C18.6064 21.6534 19.3244 20.9354 20.7604 20.9354H22.622C24.058 20.9354 24.776 21.6534 24.776 23.0895V25.802C24.776 27.238 24.058 27.9561 22.622 27.9561H20.7604C19.3244 27.9561 18.6064 27.238 18.6064 25.802ZM20.4413 25.935C20.4413 26.2186 20.5831 26.3605 20.8668 26.3605H22.5156C22.7993 26.3605 22.9411 26.2186 22.9411 25.935V22.9565C22.9411 22.6728 22.7993 22.531 22.5156 22.531H20.8668C20.5831 22.531 20.4413 22.6728 20.4413 22.9565V25.935ZM26.5817 27.9561V20.9354H30.4643C31.9004 20.9354 32.6184 21.6534 32.6184 23.0895V27.9561H30.7834V22.9565C30.7834 22.6728 30.6416 22.531 30.3579 22.531H28.4166V27.9561H26.5817ZM34.3702 25.802V23.0895C34.3702 21.6534 35.0882 20.9354 36.5243 20.9354H38.2529C39.6889 20.9354 40.4069 21.6534 40.4069 23.0895V25.1372H36.2052V25.935C36.2052 26.2186 36.347 26.3605 36.6307 26.3605H40.141V27.3577L39.3432 27.9561H36.5243C35.0882 27.9561 34.3702 27.238 34.3702 25.802ZM36.2052 23.7011H38.572V22.9565C38.572 22.6728 38.4301 22.531 38.1465 22.531H36.6307C36.347 22.531 36.2052 22.6728 36.2052 22.9565V23.7011Z" fill="#F3F6F7"/>
<path d="M22.1357 32.2412L22.3219 31.9619H23.9042L25.5264 37.387H25.6594L27.2815 31.9619H28.8639L29.05 32.2412L26.1114 41.6419H24.5291L24.343 41.3627L25.1408 38.9826H24.2499L22.1357 32.2412ZM30.1359 36.8285V34.116C30.1359 32.68 30.8539 31.9619 32.2899 31.9619H34.1515C35.5875 31.9619 36.3055 32.68 36.3055 34.116V36.8285C36.3055 38.2646 35.5875 38.9826 34.1515 38.9826H32.2899C30.8539 38.9826 30.1359 38.2646 30.1359 36.8285ZM31.9708 36.9615C31.9708 37.2452 32.1127 37.387 32.3963 37.387H34.0451C34.3288 37.387 34.4706 37.2452 34.4706 36.9615V33.983C34.4706 33.6994 34.3288 33.5575 34.0451 33.5575H32.3963C32.1127 33.5575 31.9708 33.6994 31.9708 33.983V36.9615ZM38.058 36.8285V31.9619H39.893V36.9615C39.893 37.2452 40.0348 37.387 40.3184 37.387H42.2598V31.9619H44.0947V38.9826H40.2121C38.776 38.9826 38.058 38.2646 38.058 36.8285Z" fill="#F3F6F7"/>
<path fill-rule="evenodd" clip-rule="evenodd" d="M19.3826 35.4277C17.5121 34.1788 15.9125 32.6766 14.6026 31.0205C14.1965 30.4888 13.5088 30.2251 12.8145 30.3477L8.35688 31.6487C5.47153 26.7914 4.12081 20.3533 5.05513 14.6158L16.2978 15.1828C17.0026 15.0455 18.87 11.3433 19.0705 10.7173C19.6741 8.71035 19.9951 7.14496 19.9951 4.46563C17.2221 0.893321 10.7536 0.000111079 8.90496 2.92144e-08C7.05635 -0.000110963 6.26984 0.316011 5.48179 1.41819C-4.27949 15.0705 -0.635417 34.2643 13.4775 43.6867C14.5573 44.4076 15.6451 43.766 16.223 42.9578L19.848 37.8877C20.4154 37.0942 20.2038 35.9759 19.3826 35.4277Z" fill="#F3F6F7"/>
</svg>
